<svg width="116" height="36" viewBox="0 0 116 36" fill="none" xmlns="http://www.w3.org/2000/svg">
<rect width="116" height="36" rx="2" fill="#CC0000"/>
<path d="M22.0498 20.3887C22.0498 20.0013 21.9131 19.7051 21.6396 19.5C21.3662 19.2904 20.874 19.0716 20.1631 18.8438C19.4521 18.6113 18.8893 18.3835 18.4746 18.1602C17.3444 17.5495 16.7793 16.7269 16.7793 15.6924C16.7793 15.1546 16.9297 14.6761 17.2305 14.2568C17.5358 13.833 17.971 13.5026 18.5361 13.2656C19.1058 13.0286 19.7438 12.9102 20.4502 12.9102C21.1611 12.9102 21.7946 13.04 22.3506 13.2998C22.9066 13.555 23.3372 13.9173 23.6426 14.3867C23.9525 14.8561 24.1074 15.3893 24.1074 15.9863H22.0566C22.0566 15.5306 21.9131 15.1774 21.626 14.9268C21.3389 14.6715 20.9355 14.5439 20.416 14.5439C19.9147 14.5439 19.5251 14.651 19.2471 14.8652C18.9691 15.0749 18.8301 15.3529 18.8301 15.6992C18.8301 16.0228 18.9919 16.2939 19.3154 16.5127C19.6436 16.7314 20.1243 16.9365 20.7578 17.1279C21.9245 17.4788 22.7744 17.9141 23.3076 18.4336C23.8408 18.9531 24.1074 19.6003 24.1074 20.375C24.1074 21.2363 23.7816 21.9131 23.1299 22.4053C22.4782 22.8929 21.6009 23.1367 20.498 23.1367C19.7324 23.1367 19.0352 22.9977 18.4062 22.7197C17.7773 22.4372 17.2965 22.0521 16.9639 21.5645C16.6357 21.0768 16.4717 20.5117 16.4717 19.8691H18.5293C18.5293 20.9674 19.1855 21.5166 20.498 21.5166C20.9857 21.5166 21.3662 21.4186 21.6396 21.2227C21.9131 21.0221 22.0498 20.7441 22.0498 20.3887ZM33.0352 13.0469V19.6025C33.0352 20.6917 32.6934 21.5531 32.0098 22.1865C31.3307 22.82 30.401 23.1367 29.2207 23.1367C28.0586 23.1367 27.1357 22.8291 26.4521 22.2139C25.7686 21.5986 25.4199 20.7533 25.4062 19.6777V13.0469H27.457V19.6162C27.457 20.2679 27.612 20.7441 27.9219 21.0449C28.2363 21.3411 28.6693 21.4893 29.2207 21.4893C30.3737 21.4893 30.9593 20.8831 30.9775 19.6709V13.0469H33.0352ZM34.7168 23V13.0469H38.2031C39.4108 13.0469 40.3268 13.2793 40.9512 13.7441C41.5755 14.2044 41.8877 14.8812 41.8877 15.7744C41.8877 16.262 41.7624 16.6927 41.5117 17.0664C41.2611 17.4355 40.9124 17.7067 40.4658 17.8799C40.9762 18.0075 41.3773 18.265 41.6689 18.6523C41.9652 19.0397 42.1133 19.5137 42.1133 20.0742C42.1133 21.0312 41.8079 21.7559 41.1973 22.248C40.5866 22.7402 39.7161 22.9909 38.5859 23H34.7168ZM36.7676 18.666V21.3525H38.5244C39.0075 21.3525 39.3835 21.2386 39.6523 21.0107C39.9258 20.7783 40.0625 20.4593 40.0625 20.0537C40.0625 19.1423 39.5908 18.6797 38.6475 18.666H36.7676ZM36.7676 17.2168H38.2852C39.3197 17.1986 39.8369 16.7861 39.8369 15.9795C39.8369 15.5283 39.7048 15.2048 39.4404 15.0088C39.1807 14.8083 38.7682 14.708 38.2031 14.708H36.7676V17.2168ZM48.8193 20.3887C48.8193 20.0013 48.6826 19.7051 48.4092 19.5C48.1357 19.2904 47.6436 19.0716 46.9326 18.8438C46.2217 18.6113 45.6589 18.3835 45.2441 18.1602C44.1139 17.5495 43.5488 16.7269 43.5488 15.6924C43.5488 15.1546 43.6992 14.6761 44 14.2568C44.3053 13.833 44.7406 13.5026 45.3057 13.2656C45.8753 13.0286 46.5133 12.9102 47.2197 12.9102C47.9307 12.9102 48.5641 13.04 49.1201 13.2998C49.6761 13.555 50.1068 13.9173 50.4121 14.3867C50.722 14.8561 50.877 15.3893 50.877 15.9863H48.8262C48.8262 15.5306 48.6826 15.1774 48.3955 14.9268C48.1084 14.6715 47.7051 14.5439 47.1855 14.5439C46.6842 14.5439 46.2946 14.651 46.0166 14.8652C45.7386 15.0749 45.5996 15.3529 45.5996 15.6992C45.5996 16.0228 45.7614 16.2939 46.085 16.5127C46.4131 16.7314 46.8939 16.9365 47.5273 17.1279C48.694 17.4788 49.5439 17.9141 50.0771 18.4336C50.6104 18.9531 50.877 19.6003 50.877 20.375C50.877 21.2363 50.5511 21.9131 49.8994 22.4053C49.2477 22.8929 48.3704 23.1367 47.2676 23.1367C46.502 23.1367 45.8047 22.9977 45.1758 22.7197C44.5469 22.4372 44.0661 22.0521 43.7334 21.5645C43.4053 21.0768 43.2412 20.5117 43.2412 19.8691H45.2988C45.2988 20.9674 45.9551 21.5166 47.2676 21.5166C47.7552 21.5166 48.1357 21.4186 48.4092 21.2227C48.6826 21.0221 48.8193 20.7441 48.8193 20.3887ZM60.085 19.6846C60.0075 20.7555 59.611 21.5986 58.8955 22.2139C58.1846 22.8291 57.2458 23.1367 56.0791 23.1367C54.8031 23.1367 53.7982 22.7083 53.0645 21.8516C52.3353 20.9902 51.9707 19.8099 51.9707 18.3105V17.7021C51.9707 16.7451 52.1393 15.902 52.4766 15.1729C52.8138 14.4437 53.2946 13.8854 53.9189 13.498C54.5479 13.1061 55.277 12.9102 56.1064 12.9102C57.2549 12.9102 58.18 13.2178 58.8818 13.833C59.5837 14.4482 59.9893 15.3118 60.0986 16.4238H58.0479C57.9977 15.7812 57.8177 15.3164 57.5078 15.0293C57.2025 14.7376 56.7354 14.5918 56.1064 14.5918C55.4229 14.5918 54.9102 14.8379 54.5684 15.3301C54.2311 15.8177 54.0579 16.5765 54.0488 17.6064V18.3584C54.0488 19.4339 54.2106 20.2201 54.5342 20.7168C54.8623 21.2135 55.3773 21.4619 56.0791 21.4619C56.7126 21.4619 57.1842 21.3184 57.4941 21.0312C57.8086 20.7396 57.9886 20.2907 58.0342 19.6846H60.085ZM65.1162 19.3564H63.4824V23H61.4316V13.0469H65.1299C66.3057 13.0469 67.2126 13.3089 67.8506 13.833C68.4886 14.3571 68.8076 15.0977 68.8076 16.0547C68.8076 16.7337 68.6595 17.3011 68.3633 17.7568C68.0716 18.208 67.6273 18.568 67.0303 18.8369L69.1836 22.9043V23H66.9824L65.1162 19.3564ZM63.4824 17.6953H65.1367C65.6517 17.6953 66.0505 17.5654 66.333 17.3057C66.6156 17.0413 66.7568 16.679 66.7568 16.2188C66.7568 15.7493 66.6224 15.3802 66.3535 15.1113C66.0892 14.8424 65.6813 14.708 65.1299 14.708H63.4824V17.6953ZM72.5537 23H70.5029V13.0469H72.5537V23ZM74.4609 23V13.0469H77.9473C79.1549 13.0469 80.071 13.2793 80.6953 13.7441C81.3197 14.2044 81.6318 14.8812 81.6318 15.7744C81.6318 16.262 81.5065 16.6927 81.2559 17.0664C81.0052 17.4355 80.6566 17.7067 80.21 17.8799C80.7204 18.0075 81.1214 18.265 81.4131 18.6523C81.7093 19.0397 81.8574 19.5137 81.8574 20.0742C81.8574 21.0312 81.5521 21.7559 80.9414 22.248C80.3307 22.7402 79.4603 22.9909 78.3301 23H74.4609ZM76.5117 18.666V21.3525H78.2686C78.7516 21.3525 79.1276 21.2386 79.3965 21.0107C79.6699 20.7783 79.8066 20.4593 79.8066 20.0537C79.8066 19.1423 79.335 18.6797 78.3916 18.666H76.5117ZM76.5117 17.2168H78.0293C79.0638 17.1986 79.5811 16.7861 79.5811 15.9795C79.5811 15.5283 79.4489 15.2048 79.1846 15.0088C78.9248 14.8083 78.5124 14.708 77.9473 14.708H76.5117V17.2168ZM89.3906 18.6865H85.4531V21.3525H90.0742V23H83.4023V13.0469H90.0605V14.708H85.4531V17.0801H89.3906V18.6865ZM96.4385 20.3887C96.4385 20.0013 96.3018 19.7051 96.0283 19.5C95.7549 19.2904 95.2627 19.0716 94.5518 18.8438C93.8408 18.6113 93.278 18.3835 92.8633 18.1602C91.7331 17.5495 91.168 16.7269 91.168 15.6924C91.168 15.1546 91.3184 14.6761 91.6191 14.2568C91.9245 13.833 92.3597 13.5026 92.9248 13.2656C93.4945 13.0286 94.1325 12.9102 94.8389 12.9102C95.5498 12.9102 96.1833 13.04 96.7393 13.2998C97.2952 13.555 97.7259 13.9173 98.0312 14.3867C98.3411 14.8561 98.4961 15.3893 98.4961 15.9863H96.4453C96.4453 15.5306 96.3018 15.1774 96.0146 14.9268C95.7275 14.6715 95.3242 14.5439 94.8047 14.5439C94.3034 14.5439 93.9137 14.651 93.6357 14.8652C93.3577 15.0749 93.2188 15.3529 93.2188 15.6992C93.2188 16.0228 93.3805 16.2939 93.7041 16.5127C94.0322 16.7314 94.513 16.9365 95.1465 17.1279C96.3132 17.4788 97.1631 17.9141 97.6963 18.4336C98.2295 18.9531 98.4961 19.6003 98.4961 20.375C98.4961 21.2363 98.1702 21.9131 97.5186 22.4053C96.8669 22.8929 95.9896 23.1367 94.8867 23.1367C94.1211 23.1367 93.4238 22.9977 92.7949 22.7197C92.166 22.4372 91.6852 22.0521 91.3525 21.5645C91.0244 21.0768 90.8604 20.5117 90.8604 19.8691H92.918C92.918 20.9674 93.5742 21.5166 94.8867 21.5166C95.3743 21.5166 95.7549 21.4186 96.0283 21.2227C96.3018 21.0221 96.4385 20.7441 96.4385 20.3887Z" fill="white"/>
</svg>
